<svg id="Calque_1" data-name="Calque 1" xmlns="http://www.w3.org/2000/svg" viewBox="0 0 536.76 533.83"><defs><style>.cls-1{fill:none;stroke:#161617;stroke-miterlimit:10;stroke-width:4px;}.cls-2{font-size:101.76px;fill:#010101;font-family:CharlevoixPro-Bold, Charlevoix Pro;}.cls-3{font-weight:700;}.cls-4,.cls-5,.cls-6{font-family:CharlevoixPro-Regular, Charlevoix Pro;}.cls-5{letter-spacing:-0.02em;}.cls-6{letter-spacing:-0.04em;}</style></defs><title>nebulius-logo_SVG</title><path class="cls-1" d="M414.55,449.36A22.44,22.44,0,1,0,437,471.8,22.46,22.46,0,0,0,414.55,449.36Z" transform="translate(-145.63 -28.9)"/><path class="cls-1" d="M414,30.9c-147.12,0-266.38,119.26-266.38,266.38,0,132.73,97.08,242.78,224.11,263-5.43-28.83-8.26-56.8-8.26-77.87A225.54,225.54,0,0,1,374,415.16l.4.19,1.16.55,1.29.59L378,417l1.3.55,1.18.47,1.32.51L383,419l1.33.47,1.2.4,1.34.43,1.21.37,1.35.39,1.21.33,1.37.35,1.22.3,1.39.31,1.22.26,1.41.27,1.21.22,1.44.23,1.2.19,1.48.2,1.18.15,1.53.16,1.14.11,1.61.12,1.08.08,1.8.08.9,0q1.36,0,2.72,0t2.72,0l.9,0,1.8-.08,1.08-.08,1.61-.12,1.14-.11,1.53-.16,1.18-.15,1.48-.2,1.2-.19,1.44-.23,1.21-.22,1.41-.27,1.22-.26,1.39-.31,1.22-.3,1.37-.35,1.21-.33,1.35-.39,1.21-.37,1.34-.43,1.2-.4,1.33-.47,1.19-.44,1.32-.51,1.18-.47,1.3-.55,1.17-.51,1.29-.59,1.16-.55.4-.19a225.53,225.53,0,0,1,10.52,67.28c0,21-2.81,48.92-8.22,77.69,126.49-20.72,223-130.5,223-262.85C680.39,150.16,561.13,30.9,414,30.9Zm.54,390.37A88.45,88.45,0,0,1,375,412.09c9.81-28.92,24.15-49.51,39.52-56.75,15.37,7.24,29.71,27.83,39.52,56.75A88.45,88.45,0,0,1,414.55,421.27Z" transform="translate(-145.63 -28.9)"/><text class="cls-2" transform="translate(20.88 291.44)"><tspan class="cls-3">NEB</tspan><tspan class="cls-4" x="207.8" y="0">U</tspan><tspan class="cls-5" x="283.41" y="0">L</tspan><tspan class="cls-4" x="334.19" y="0">I</tspan><tspan class="cls-6" x="357.9" y="0">U</tspan><tspan class="cls-4" x="429.44" y="0">S</tspan></text></svg>