<svg id="Calque_1" data-name="Calque 1" xmlns="http://www.w3.org/2000/svg" viewBox="0 0 648.33 816"><defs><style>.cls-1{fill:#fff;stroke:#000;stroke-miterlimit:10;stroke-width:6px;}</style></defs><title>nebulius-logo-vector</title><path class="cls-1" d="M816.43,535.13,700.83,597.22a7.68,7.68,0,0,0-3.22,3.28l-64,125.25a7.7,7.7,0,0,0-.65,5.18,7.51,7.51,0,0,0,.83,2.12,7.69,7.69,0,0,0,6.2,3.86l132.7,8.19c4.88,26.64,16.17,48.58,33.67,64.79l-28.63,56.9a7.7,7.7,0,0,0,2.92,10.07l45.54,27.2a7.7,7.7,0,0,0,10.61-2.8l32.89-57.35c12,1.56,41.21,2.63,81.45-14.54l72.12,112.12a7.69,7.69,0,0,0,12.86.1l78.07-117a7.74,7.74,0,0,0,1.3-4.61l-5.79-129.62A911,911,0,0,0,1173,590.88c116.27-210,108.7-352,93.85-417.93-4.89-21.7-10.22-33.07-10.44-33.56a7.7,7.7,0,0,0-7.35-4.39c-8,.41-199,13.53-385.07,307.79A883.36,883.36,0,0,0,816.43,535.13Zm195.42-111.58" transform="translate(-629.81 -132)"/><path d="M1152.53,409.76l-13.95-8.53a2.43,2.43,0,0,1-1.21-1.94l-11.19-80.92c-.16-1.7-1.39-1.65-2.19-.34l-32.17,52.6a1.61,1.61,0,0,1-2.34.57l-21.79-13.33a1.61,1.61,0,0,1-.56-2.34l61.59-100.68a1.61,1.61,0,0,1,2.34-.57L1145,262.8a2.42,2.42,0,0,1,1.21,1.94l11.19,80.92c.16,1.7,1.39,1.65,2.19.34l32.17-52.59a1.61,1.61,0,0,1,2.34-.56l21.79,13.33a1.61,1.61,0,0,1,.56,2.34l-61.59,100.68A1.61,1.61,0,0,1,1152.53,409.76Z" transform="translate(-629.81 -132)"/><path d="M1038.21,551.48l-11.55,18.89a1.61,1.61,0,0,1-2.34.57l-63.78-39a1.61,1.61,0,0,1-.56-2.34l61.59-100.68a1.61,1.61,0,0,1,2.34-.57l62.33,38.13a1.61,1.61,0,0,1,.56,2.34l-11.55,18.89a1.61,1.61,0,0,1-2.34.56l-37.63-23a1.61,1.61,0,0,0-2.34.56l-10.4,17a1.61,1.61,0,0,0,.56,2.34l27.17,16.62a1.61,1.61,0,0,1,.56,2.34L1039.28,523a1.61,1.61,0,0,1-2.34.56l-27.17-16.62a1.61,1.61,0,0,0-2.34.57L998,522.89a1.61,1.61,0,0,0,.56,2.34l39.08,23.91A1.61,1.61,0,0,1,1038.21,551.48Z" transform="translate(-629.81 -132)"/><path d="M855.73,705.42l61.59-100.68a1.61,1.61,0,0,1,2.34-.57l40.24,24.62c20.92,12.8,25.59,30.63,13.94,49.66-5.42,8.86-13.58,13.06-19.95,13.35-1.23,0-1.49.48-.83,1.68,4.84,7.75,5.41,19.88-1.61,31.36-11.64,19-29.64,23-50.56,10.2l-44.6-27.28A1.61,1.61,0,0,1,855.73,705.42Zm79.2-35.81c6.83,4.18,13.3,1.75,16.24-3s2.23-11.81-4.6-16L931,641.07a1.61,1.61,0,0,0-2.34.57l-9.86,16.13a1.61,1.61,0,0,0,.56,2.34Zm-20.7,43.64c6.54,4,13.3,1.75,16.33-3.19s2.23-11.81-4.6-16l-19.9-12.18a1.61,1.61,0,0,0-2.34.57l-10,16.27a1.61,1.61,0,0,0,.56,2.34Z" transform="translate(-629.81 -132)"/></svg>